<svg xmlns="http://www.w3.org/2000/svg" width="444" height="378" viewBox="0 0 444 378" font-family="Segoe UI, Helvetica, Arial, sans-serif"><rect width="444" height="378" fill="#fcfcfb"/><text x="24" y="32" font-size="19" font-weight="600" fill="#1f1f1e">Wejście: sterta JS</text><text x="24" y="54" font-size="13" fill="#5f5e5a">bez ograniczeń sieci · CPU ×1</text><line x1="24" x2="52" y1="74" y2="74" stroke="#eb6834" stroke-width="2" stroke-dasharray="6 4"/><g fill="#eb6834" stroke="#fcfcfb" stroke-width="2"><rect x="33.5" y="69.5" width="9" height="9" rx="1"/></g><text x="60" y="78" font-size="13" fill="#1f1f1e">old (v2.5.1, cała lista)</text><line x1="256.8" x2="284.8" y1="74" y2="74" stroke="#2a78d6" stroke-width="2" stroke-dasharray=""/><g fill="#2a78d6" stroke="#fcfcfb" stroke-width="2"><circle cx="270.8" cy="74" r="4.5"/></g><text x="292.8" y="78" font-size="13" fill="#1f1f1e">new (paginacja)</text><text x="24" y="102" font-size="12" fill="#5f5e5a">punkt/słupek: mediana · wąs: p95</text><text x="64" y="132" font-size="14" font-weight="600" fill="#1f1f1e">Wejście: sterta JS</text><text x="418" y="132" font-size="11" fill="#5f5e5a" text-anchor="end">MB, skala log.</text><line x1="64" x2="418" y1="328" y2="328" stroke="#e4e3de"/><text x="58" y="332" font-size="11" fill="#5f5e5a" text-anchor="end">10</text><line x1="64" x2="418" y1="237" y2="237" stroke="#e4e3de"/><text x="58" y="241" font-size="11" fill="#5f5e5a" text-anchor="end">100</text><line x1="64" x2="418" y1="146" y2="146" stroke="#e4e3de"/><text x="58" y="150" font-size="11" fill="#5f5e5a" text-anchor="end">1000</text><line x1="64" x2="418" y1="328" y2="328" stroke="#a8a79f"/><text x="80.0909090909091" y="344" font-size="11" fill="#5f5e5a" text-anchor="middle">100</text><text x="241" y="344" font-size="11" fill="#5f5e5a" text-anchor="middle">1000</text><text x="317.7731473503457" y="344" font-size="11" fill="#5f5e5a" text-anchor="middle">3000</text><text x="353.4706279704321" y="344" font-size="11" fill="#5f5e5a" text-anchor="middle">5000</text><text x="401.9090909090909" y="344" font-size="11" fill="#5f5e5a" text-anchor="middle">10 tys.</text><line x1="80.0909090909091" x2="80.0909090909091" y1="306.72520541536335" y2="306.6191541989374" stroke="#eb6834" stroke-width="1.5" opacity="0.75"/><line x1="76.0909090909091" x2="84.0909090909091" y1="306.6191541989374" y2="306.6191541989374" stroke="#eb6834" stroke-width="1.5" opacity="0.75"/><line x1="241" x2="241" y1="264.4328729928573" y2="253.28636772327997" stroke="#eb6834" stroke-width="1.5" opacity="0.75"/><line x1="237" x2="245" y1="253.28636772327997" y2="253.28636772327997" stroke="#eb6834" stroke-width="1.5" opacity="0.75"/><line x1="317.7731473503457" x2="317.7731473503457" y1="204.16463668940196" y2="200.47905629078213" stroke="#eb6834" stroke-width="1.5" opacity="0.75"/><line x1="313.7731473503457" x2="321.7731473503457" y1="200.47905629078213" y2="200.47905629078213" stroke="#eb6834" stroke-width="1.5" opacity="0.75"/><line x1="353.4706279704321" x2="353.4706279704321" y1="173.50337789396622" y2="171.55260692584014" stroke="#eb6834" stroke-width="1.5" opacity="0.75"/><line x1="349.4706279704321" x2="357.4706279704321" y1="171.55260692584014" y2="171.55260692584014" stroke="#eb6834" stroke-width="1.5" opacity="0.75"/><path d="M80.1 306.7L241.0 264.4L317.8 204.2L353.5 173.5" fill="none" stroke="#eb6834" stroke-width="2" stroke-dasharray="6 4" stroke-linejoin="round"/><g fill="#eb6834" stroke="#fcfcfb" stroke-width="2"><rect x="75.5909090909091" y="302.22520541536335" width="9" height="9" rx="1"/><rect x="236.5" y="259.9328729928573" width="9" height="9" rx="1"/><rect x="313.2731473503457" y="199.66463668940196" width="9" height="9" rx="1"/><rect x="348.9706279704321" y="169.00337789396622" width="9" height="9" rx="1"/></g><line x1="80.0909090909091" x2="80.0909090909091" y1="322.3844481791201" y2="322.2204692506858" stroke="#2a78d6" stroke-width="1.5" opacity="0.75"/><line x1="76.0909090909091" x2="84.0909090909091" y1="322.2204692506858" y2="322.2204692506858" stroke="#2a78d6" stroke-width="1.5" opacity="0.75"/><line x1="241" x2="241" y1="322.26055482356287" y2="322.1132578775425" stroke="#2a78d6" stroke-width="1.5" opacity="0.75"/><line x1="237" x2="245" y1="322.1132578775425" y2="322.1132578775425" stroke="#2a78d6" stroke-width="1.5" opacity="0.75"/><line x1="317.7731473503457" x2="317.7731473503457" y1="322.31549073190183" y2="322.1981112572254" stroke="#2a78d6" stroke-width="1.5" opacity="0.75"/><line x1="313.7731473503457" x2="321.7731473503457" y1="322.1981112572254" y2="322.1981112572254" stroke="#2a78d6" stroke-width="1.5" opacity="0.75"/><line x1="353.4706279704321" x2="353.4706279704321" y1="322.30521052131246" y2="322.21879623017907" stroke="#2a78d6" stroke-width="1.5" opacity="0.75"/><line x1="349.4706279704321" x2="357.4706279704321" y1="322.21879623017907" y2="322.21879623017907" stroke="#2a78d6" stroke-width="1.5" opacity="0.75"/><line x1="401.9090909090909" x2="401.9090909090909" y1="322.26769880661647" y2="322.1798492144128" stroke="#2a78d6" stroke-width="1.5" opacity="0.75"/><line x1="397.9090909090909" x2="405.9090909090909" y1="322.1798492144128" y2="322.1798492144128" stroke="#2a78d6" stroke-width="1.5" opacity="0.75"/><path d="M80.1 322.4L241.0 322.3L317.8 322.3L353.5 322.3L401.9 322.3" fill="none" stroke="#2a78d6" stroke-width="2" stroke-dasharray="" stroke-linejoin="round"/><g fill="#2a78d6" stroke="#fcfcfb" stroke-width="2"><circle cx="80.0909090909091" cy="322.3844481791201" r="4.5"/><circle cx="241" cy="322.26055482356287" r="4.5"/><circle cx="317.7731473503457" cy="322.31549073190183" r="4.5"/><circle cx="353.4706279704321" cy="322.30521052131246" r="4.5"/><circle cx="401.9090909090909" cy="322.26769880661647" r="4.5"/></g><text x="241" y="360" font-size="11" fill="#5f5e5a" text-anchor="middle">N (skala log.)</text></svg>