<svg xmlns="http://www.w3.org/2000/svg" width="444" height="378" viewBox="0 0 444 378" font-family="Segoe UI, Helvetica, Arial, sans-serif"><rect width="444" height="378" fill="#fcfcfb"/><text x="24" y="32" font-size="19" font-weight="600" fill="#1f1f1e">Do końca listy: transfer API</text><text x="24" y="54" font-size="13" fill="#5f5e5a">bez ograniczeń sieci · CPU ×1</text><line x1="24" x2="52" y1="74" y2="74" stroke="#eb6834" stroke-width="2" stroke-dasharray="6 4"/><g fill="#eb6834" stroke="#fcfcfb" stroke-width="2"><rect x="33.5" y="69.5" width="9" height="9" rx="1"/></g><text x="60" y="78" font-size="13" fill="#1f1f1e">old (v2.5.1, cała lista)</text><line x1="256.8" x2="284.8" y1="74" y2="74" stroke="#2a78d6" stroke-width="2" stroke-dasharray=""/><g fill="#2a78d6" stroke="#fcfcfb" stroke-width="2"><circle cx="270.8" cy="74" r="4.5"/></g><text x="292.8" y="78" font-size="13" fill="#1f1f1e">new (paginacja)</text><text x="24" y="102" font-size="12" fill="#5f5e5a">punkt/słupek: mediana · wąs: p95</text><text x="64" y="132" font-size="14" font-weight="600" fill="#1f1f1e">Do końca listy: transfer API</text><text x="418" y="132" font-size="11" fill="#5f5e5a" text-anchor="end">MB, skala log.</text><line x1="64" x2="418" y1="328" y2="328" stroke="#e4e3de"/><text x="58" y="332" font-size="11" fill="#5f5e5a" text-anchor="end">0,01</text><line x1="64" x2="418" y1="267.3333333333333" y2="267.3333333333333" stroke="#e4e3de"/><text x="58" y="271.3333333333333" font-size="11" fill="#5f5e5a" text-anchor="end">0,1</text><line x1="64" x2="418" y1="206.66666666666669" y2="206.66666666666669" stroke="#e4e3de"/><text x="58" y="210.66666666666669" font-size="11" fill="#5f5e5a" text-anchor="end">1</text><line x1="64" x2="418" y1="146" y2="146" stroke="#e4e3de"/><text x="58" y="150" font-size="11" fill="#5f5e5a" text-anchor="end">10</text><line x1="64" x2="418" y1="328" y2="328" stroke="#a8a79f"/><text x="80.0909090909091" y="344" font-size="11" fill="#5f5e5a" text-anchor="middle">100</text><text x="241" y="344" font-size="11" fill="#5f5e5a" text-anchor="middle">1000</text><text x="317.7731473503457" y="344" font-size="11" fill="#5f5e5a" text-anchor="middle">3000</text><text x="353.4706279704321" y="344" font-size="11" fill="#5f5e5a" text-anchor="middle">5000</text><text x="401.9090909090909" y="344" font-size="11" fill="#5f5e5a" text-anchor="middle">10 tys.</text><path d="M80.1 328.0L241.0 328.0L317.8 328.0L353.5 328.0" fill="none" stroke="#eb6834" stroke-width="2" stroke-dasharray="6 4" stroke-linejoin="round"/><g fill="#eb6834" stroke="#fcfcfb" stroke-width="2"><rect x="75.5909090909091" y="323.5" width="9" height="9" rx="1"/><rect x="236.5" y="323.5" width="9" height="9" rx="1"/><rect x="313.2731473503457" y="323.5" width="9" height="9" rx="1"/><rect x="348.9706279704321" y="323.5" width="9" height="9" rx="1"/></g><path d="M80.1 282.5L241.0 216.7L317.8 187.2L353.5 173.6L401.9 155.3" fill="none" stroke="#2a78d6" stroke-width="2" stroke-dasharray="" stroke-linejoin="round"/><g fill="#2a78d6" stroke="#fcfcfb" stroke-width="2"><circle cx="80.0909090909091" cy="282.47196540061026" r="4.5"/><circle cx="241" cy="216.65070051837995" r="4.5"/><circle cx="317.7731473503457" cy="187.21347793543524" r="4.5"/><circle cx="353.4706279704321" cy="173.60311354026342" r="4.5"/><circle cx="401.9090909090909" cy="155.31808328989885" r="4.5"/></g><text x="241" y="360" font-size="11" fill="#5f5e5a" text-anchor="middle">N (skala log.)</text></svg>