<svg xmlns="http://www.w3.org/2000/svg" width="444" height="378" viewBox="0 0 444 378" font-family="Segoe UI, Helvetica, Arial, sans-serif"><rect width="444" height="378" fill="#fcfcfb"/><text x="24" y="32" font-size="19" font-weight="600" fill="#1f1f1e">Zmiana sortowania</text><text x="24" y="54" font-size="13" fill="#5f5e5a">bez ograniczeń sieci · CPU ×1</text><line x1="24" x2="52" y1="74" y2="74" stroke="#eb6834" stroke-width="2" stroke-dasharray="6 4"/><g fill="#eb6834" stroke="#fcfcfb" stroke-width="2"><rect x="33.5" y="69.5" width="9" height="9" rx="1"/></g><text x="60" y="78" font-size="13" fill="#1f1f1e">old (v2.5.1, cała lista)</text><line x1="256.8" x2="284.8" y1="74" y2="74" stroke="#2a78d6" stroke-width="2" stroke-dasharray=""/><g fill="#2a78d6" stroke="#fcfcfb" stroke-width="2"><circle cx="270.8" cy="74" r="4.5"/></g><text x="292.8" y="78" font-size="13" fill="#1f1f1e">new (paginacja)</text><text x="24" y="102" font-size="12" fill="#5f5e5a">punkt/słupek: mediana · wąs: p95</text><text x="64" y="132" font-size="14" font-weight="600" fill="#1f1f1e">Zmiana sortowania</text><text x="418" y="132" font-size="11" fill="#5f5e5a" text-anchor="end">s, skala log.</text><line x1="64" x2="418" y1="328" y2="328" stroke="#e4e3de"/><text x="58" y="332" font-size="11" fill="#5f5e5a" text-anchor="end">0,01</text><line x1="64" x2="418" y1="267.3333333333333" y2="267.3333333333333" stroke="#e4e3de"/><text x="58" y="271.3333333333333" font-size="11" fill="#5f5e5a" text-anchor="end">0,1</text><line x1="64" x2="418" y1="206.66666666666669" y2="206.66666666666669" stroke="#e4e3de"/><text x="58" y="210.66666666666669" font-size="11" fill="#5f5e5a" text-anchor="end">1</text><line x1="64" x2="418" y1="146" y2="146" stroke="#e4e3de"/><text x="58" y="150" font-size="11" fill="#5f5e5a" text-anchor="end">10</text><line x1="64" x2="418" y1="328" y2="328" stroke="#a8a79f"/><text x="80.0909090909091" y="344" font-size="11" fill="#5f5e5a" text-anchor="middle">100</text><text x="241" y="344" font-size="11" fill="#5f5e5a" text-anchor="middle">1000</text><text x="317.7731473503457" y="344" font-size="11" fill="#5f5e5a" text-anchor="middle">3000</text><text x="353.4706279704321" y="344" font-size="11" fill="#5f5e5a" text-anchor="middle">5000</text><text x="401.9090909090909" y="344" font-size="11" fill="#5f5e5a" text-anchor="middle">10 tys.</text><line x1="80.0909090909091" x2="80.0909090909091" y1="298.446938554384" y2="296.0100053333686" stroke="#eb6834" stroke-width="1.5" opacity="0.75"/><line x1="76.0909090909091" x2="84.0909090909091" y1="296.0100053333686" y2="296.0100053333686" stroke="#eb6834" stroke-width="1.5" opacity="0.75"/><line x1="241" x2="241" y1="231.38436948520862" y2="230.47130550991665" stroke="#eb6834" stroke-width="1.5" opacity="0.75"/><line x1="237" x2="245" y1="230.47130550991665" y2="230.47130550991665" stroke="#eb6834" stroke-width="1.5" opacity="0.75"/><line x1="317.7731473503457" x2="317.7731473503457" y1="191.61774579106333" y2="191.01270441827668" stroke="#eb6834" stroke-width="1.5" opacity="0.75"/><line x1="313.7731473503457" x2="321.7731473503457" y1="191.01270441827668" y2="191.01270441827668" stroke="#eb6834" stroke-width="1.5" opacity="0.75"/><line x1="353.4706279704321" x2="353.4706279704321" y1="165.07179258177447" y2="163.88059835274413" stroke="#eb6834" stroke-width="1.5" opacity="0.75"/><line x1="349.4706279704321" x2="357.4706279704321" y1="163.88059835274413" y2="163.88059835274413" stroke="#eb6834" stroke-width="1.5" opacity="0.75"/><path d="M80.1 298.4L241.0 231.4L317.8 191.6L353.5 165.1" fill="none" stroke="#eb6834" stroke-width="2" stroke-dasharray="6 4" stroke-linejoin="round"/><g fill="#eb6834" stroke="#fcfcfb" stroke-width="2"><rect x="75.5909090909091" y="293.946938554384" width="9" height="9" rx="1"/><rect x="236.5" y="226.88436948520862" width="9" height="9" rx="1"/><rect x="313.2731473503457" y="187.11774579106333" width="9" height="9" rx="1"/><rect x="348.9706279704321" y="160.57179258177447" width="9" height="9" rx="1"/></g><line x1="80.0909090909091" x2="80.0909090909091" y1="273.36116217172224" y2="271.80969699242905" stroke="#2a78d6" stroke-width="1.5" opacity="0.75"/><line x1="76.0909090909091" x2="84.0909090909091" y1="271.80969699242905" y2="271.80969699242905" stroke="#2a78d6" stroke-width="1.5" opacity="0.75"/><line x1="241" x2="241" y1="272.91778968885546" y2="271.3622970480697" stroke="#2a78d6" stroke-width="1.5" opacity="0.75"/><line x1="237" x2="245" y1="271.3622970480697" y2="271.3622970480697" stroke="#2a78d6" stroke-width="1.5" opacity="0.75"/><line x1="317.7731473503457" x2="317.7731473503457" y1="272.3220745181694" y2="271.3055621885477" stroke="#2a78d6" stroke-width="1.5" opacity="0.75"/><line x1="313.7731473503457" x2="321.7731473503457" y1="271.3055621885477" y2="271.3055621885477" stroke="#2a78d6" stroke-width="1.5" opacity="0.75"/><line x1="353.4706279704321" x2="353.4706279704321" y1="271.6462667918669" y2="269.8703224810598" stroke="#2a78d6" stroke-width="1.5" opacity="0.75"/><line x1="349.4706279704321" x2="357.4706279704321" y1="269.8703224810598" y2="269.8703224810598" stroke="#2a78d6" stroke-width="1.5" opacity="0.75"/><line x1="401.9090909090909" x2="401.9090909090909" y1="270.9571115856086" y2="270.23988314781036" stroke="#2a78d6" stroke-width="1.5" opacity="0.75"/><line x1="397.9090909090909" x2="405.9090909090909" y1="270.23988314781036" y2="270.23988314781036" stroke="#2a78d6" stroke-width="1.5" opacity="0.75"/><path d="M80.1 273.4L241.0 272.9L317.8 272.3L353.5 271.6L401.9 271.0" fill="none" stroke="#2a78d6" stroke-width="2" stroke-dasharray="" stroke-linejoin="round"/><g fill="#2a78d6" stroke="#fcfcfb" stroke-width="2"><circle cx="80.0909090909091" cy="273.36116217172224" r="4.5"/><circle cx="241" cy="272.91778968885546" r="4.5"/><circle cx="317.7731473503457" cy="272.3220745181694" r="4.5"/><circle cx="353.4706279704321" cy="271.6462667918669" r="4.5"/><circle cx="401.9090909090909" cy="270.9571115856086" r="4.5"/></g><text x="241" y="360" font-size="11" fill="#5f5e5a" text-anchor="middle">N (skala log.)</text></svg>