<svg xmlns="http://www.w3.org/2000/svg" width="1284" height="854" viewBox="0 0 1284 854" font-family="Segoe UI, Helvetica, Arial, sans-serif"><rect width="1284" height="854" fill="#fcfcfb"/><text x="24" y="32" font-size="19" font-weight="600" fill="#1f1f1e">Lista zgłoszeń: old vs new</text><text x="24" y="54" font-size="13" fill="#5f5e5a">bez ograniczeń sieci · CPU ×1 · mediana z przebiegów ze statusem ok</text><line x1="24" x2="52" y1="74" y2="74" stroke="#eb6834" stroke-width="2" stroke-dasharray="6 4"/><g fill="#eb6834" stroke="#fcfcfb" stroke-width="2"><rect x="33.5" y="69.5" width="9" height="9" rx="1"/></g><text x="60" y="78" font-size="13" fill="#1f1f1e">old (v2.5.1, cała lista)</text><line x1="256.8" x2="284.8" y1="74" y2="74" stroke="#2a78d6" stroke-width="2" stroke-dasharray=""/><g fill="#2a78d6" stroke="#fcfcfb" stroke-width="2"><circle cx="270.8" cy="74" r="4.5"/></g><text x="292.8" y="78" font-size="13" fill="#1f1f1e">new (paginacja)</text><text x="424.8" y="78" font-size="12" fill="#5f5e5a">punkt/słupek: mediana · wąs: p95</text><text x="64" y="108" font-size="14" font-weight="600" fill="#1f1f1e">Wejście: pierwszy wiersz</text><text x="418" y="108" font-size="11" fill="#5f5e5a" text-anchor="end">s</text><line x1="64" x2="418" y1="304" y2="304" stroke="#e4e3de"/><text x="58" y="308" font-size="11" fill="#5f5e5a" text-anchor="end">0</text><line x1="64" x2="418" y1="243.33333333333334" y2="243.33333333333334" stroke="#e4e3de"/><text x="58" y="247.33333333333334" font-size="11" fill="#5f5e5a" text-anchor="end">5</text><line x1="64" x2="418" y1="182.66666666666669" y2="182.66666666666669" stroke="#e4e3de"/><text x="58" y="186.66666666666669" font-size="11" fill="#5f5e5a" text-anchor="end">10</text><line x1="64" x2="418" y1="122" y2="122" stroke="#e4e3de"/><text x="58" y="126" font-size="11" fill="#5f5e5a" text-anchor="end">15</text><line x1="64" x2="418" y1="304" y2="304" stroke="#a8a79f"/><text x="80.0909090909091" y="320" font-size="11" fill="#5f5e5a" text-anchor="middle">100</text><text x="241" y="320" font-size="11" fill="#5f5e5a" text-anchor="middle">1000</text><text x="317.7731473503457" y="320" font-size="11" fill="#5f5e5a" text-anchor="middle">3000</text><text x="353.4706279704321" y="320" font-size="11" fill="#5f5e5a" text-anchor="middle">5000</text><text x="401.9090909090909" y="320" font-size="11" fill="#5f5e5a" text-anchor="middle">10 tys.</text><line x1="80.0909090909091" x2="80.0909090909091" y1="298.0989533333333" y2="297.987448" stroke="#eb6834" stroke-width="1.5" opacity="0.75"/><line x1="76.0909090909091" x2="84.0909090909091" y1="297.987448" y2="297.987448" stroke="#eb6834" stroke-width="1.5" opacity="0.75"/><line x1="241" x2="241" y1="274.79992" y2="274.5404486666667" stroke="#eb6834" stroke-width="1.5" opacity="0.75"/><line x1="237" x2="245" y1="274.5404486666667" y2="274.5404486666667" stroke="#eb6834" stroke-width="1.5" opacity="0.75"/><line x1="317.7731473503457" x2="317.7731473503457" y1="221.29738" y2="220.54299" stroke="#eb6834" stroke-width="1.5" opacity="0.75"/><line x1="313.7731473503457" x2="321.7731473503457" y1="220.54299" y2="220.54299" stroke="#eb6834" stroke-width="1.5" opacity="0.75"/><line x1="353.4706279704321" x2="353.4706279704321" y1="168.82132000000001" y2="167.89833733333333" stroke="#eb6834" stroke-width="1.5" opacity="0.75"/><line x1="349.4706279704321" x2="357.4706279704321" y1="167.89833733333333" y2="167.89833733333333" stroke="#eb6834" stroke-width="1.5" opacity="0.75"/><path d="M80.1 298.1L241.0 274.8L317.8 221.3L353.5 168.8" fill="none" stroke="#eb6834" stroke-width="2" stroke-dasharray="6 4" stroke-linejoin="round"/><g fill="#eb6834" stroke="#fcfcfb" stroke-width="2"><rect x="75.5909090909091" y="293.5989533333333" width="9" height="9" rx="1"/><rect x="236.5" y="270.29992" width="9" height="9" rx="1"/><rect x="313.2731473503457" y="216.79738" width="9" height="9" rx="1"/><rect x="348.9706279704321" y="164.32132000000001" width="9" height="9" rx="1"/></g><line x1="80.0909090909091" x2="80.0909090909091" y1="297.05852" y2="296.91334466666666" stroke="#2a78d6" stroke-width="1.5" opacity="0.75"/><line x1="76.0909090909091" x2="84.0909090909091" y1="296.91334466666666" y2="296.91334466666666" stroke="#2a78d6" stroke-width="1.5" opacity="0.75"/><line x1="241" x2="241" y1="296.98208" y2="296.80032266666666" stroke="#2a78d6" stroke-width="1.5" opacity="0.75"/><line x1="237" x2="245" y1="296.80032266666666" y2="296.80032266666666" stroke="#2a78d6" stroke-width="1.5" opacity="0.75"/><line x1="317.7731473503457" x2="317.7731473503457" y1="297.11615333333333" y2="296.93506333333335" stroke="#2a78d6" stroke-width="1.5" opacity="0.75"/><line x1="313.7731473503457" x2="321.7731473503457" y1="296.93506333333335" y2="296.93506333333335" stroke="#2a78d6" stroke-width="1.5" opacity="0.75"/><line x1="353.4706279704321" x2="353.4706279704321" y1="297.1270733333333" y2="297.0236366666667" stroke="#2a78d6" stroke-width="1.5" opacity="0.75"/><line x1="349.4706279704321" x2="357.4706279704321" y1="297.0236366666667" y2="297.0236366666667" stroke="#2a78d6" stroke-width="1.5" opacity="0.75"/><line x1="401.9090909090909" x2="401.9090909090909" y1="297.11069333333336" y2="297.02369733333336" stroke="#2a78d6" stroke-width="1.5" opacity="0.75"/><line x1="397.9090909090909" x2="405.9090909090909" y1="297.02369733333336" y2="297.02369733333336" stroke="#2a78d6" stroke-width="1.5" opacity="0.75"/><path d="M80.1 297.1L241.0 297.0L317.8 297.1L353.5 297.1L401.9 297.1" fill="none" stroke="#2a78d6" stroke-width="2" stroke-dasharray="" stroke-linejoin="round"/><g fill="#2a78d6" stroke="#fcfcfb" stroke-width="2"><circle cx="80.0909090909091" cy="297.05852" r="4.5"/><circle cx="241" cy="296.98208" r="4.5"/><circle cx="317.7731473503457" cy="297.11615333333333" r="4.5"/><circle cx="353.4706279704321" cy="297.1270733333333" r="4.5"/><circle cx="401.9090909090909" cy="297.11069333333336" r="4.5"/></g><text x="241" y="336" font-size="11" fill="#5f5e5a" text-anchor="middle">N (skala log.)</text><text x="484" y="108" font-size="14" font-weight="600" fill="#1f1f1e">Wejście: Total Blocking Time</text><text x="838" y="108" font-size="11" fill="#5f5e5a" text-anchor="end">s</text><line x1="484" x2="838" y1="304" y2="304" stroke="#e4e3de"/><text x="478" y="308" font-size="11" fill="#5f5e5a" text-anchor="end">0</text><line x1="484" x2="838" y1="243.33333333333334" y2="243.33333333333334" stroke="#e4e3de"/><text x="478" y="247.33333333333334" font-size="11" fill="#5f5e5a" text-anchor="end">1</text><line x1="484" x2="838" y1="182.66666666666669" y2="182.66666666666669" stroke="#e4e3de"/><text x="478" y="186.66666666666669" font-size="11" fill="#5f5e5a" text-anchor="end">2</text><line x1="484" x2="838" y1="122" y2="122" stroke="#e4e3de"/><text x="478" y="126" font-size="11" fill="#5f5e5a" text-anchor="end">3</text><line x1="484" x2="838" y1="304" y2="304" stroke="#a8a79f"/><text x="500.09090909090907" y="320" font-size="11" fill="#5f5e5a" text-anchor="middle">100</text><text x="661" y="320" font-size="11" fill="#5f5e5a" text-anchor="middle">1000</text><text x="737.7731473503457" y="320" font-size="11" fill="#5f5e5a" text-anchor="middle">3000</text><text x="773.4706279704321" y="320" font-size="11" fill="#5f5e5a" text-anchor="middle">5000</text><text x="821.9090909090909" y="320" font-size="11" fill="#5f5e5a" text-anchor="middle">10 tys.</text><line x1="500.09090909090907" x2="500.09090909090907" y1="302.908" y2="302.5713" stroke="#eb6834" stroke-width="1.5" opacity="0.75"/><line x1="496.09090909090907" x2="504.09090909090907" y1="302.5713" y2="302.5713" stroke="#eb6834" stroke-width="1.5" opacity="0.75"/><line x1="661" x2="661" y1="295.082" y2="293.5532" stroke="#eb6834" stroke-width="1.5" opacity="0.75"/><line x1="657" x2="665" y1="293.5532" y2="293.5532" stroke="#eb6834" stroke-width="1.5" opacity="0.75"/><line x1="737.7731473503457" x2="737.7731473503457" y1="217.21633333333332" y2="171.63746666666663" stroke="#eb6834" stroke-width="1.5" opacity="0.75"/><line x1="733.7731473503457" x2="741.7731473503457" y1="171.63746666666663" y2="171.63746666666663" stroke="#eb6834" stroke-width="1.5" opacity="0.75"/><line x1="773.4706279704321" x2="773.4706279704321" y1="139.16866666666667" y2="134.60956666666667" stroke="#eb6834" stroke-width="1.5" opacity="0.75"/><line x1="769.4706279704321" x2="777.4706279704321" y1="134.60956666666667" y2="134.60956666666667" stroke="#eb6834" stroke-width="1.5" opacity="0.75"/><path d="M500.1 302.9L661.0 295.1L737.8 217.2L773.5 139.2" fill="none" stroke="#eb6834" stroke-width="2" stroke-dasharray="6 4" stroke-linejoin="round"/><g fill="#eb6834" stroke="#fcfcfb" stroke-width="2"><rect x="495.59090909090907" y="298.408" width="9" height="9" rx="1"/><rect x="656.5" y="290.582" width="9" height="9" rx="1"/><rect x="733.2731473503457" y="212.71633333333332" width="9" height="9" rx="1"/><rect x="768.9706279704321" y="134.66866666666667" width="9" height="9" rx="1"/></g><line x1="500.09090909090907" x2="500.09090909090907" y1="302.96866666666665" y2="302.65926666666667" stroke="#2a78d6" stroke-width="1.5" opacity="0.75"/><line x1="496.09090909090907" x2="504.09090909090907" y1="302.65926666666667" y2="302.65926666666667" stroke="#2a78d6" stroke-width="1.5" opacity="0.75"/><line x1="661" x2="661" y1="302.8473333333333" y2="302.20123333333333" stroke="#2a78d6" stroke-width="1.5" opacity="0.75"/><line x1="657" x2="665" y1="302.20123333333333" y2="302.20123333333333" stroke="#2a78d6" stroke-width="1.5" opacity="0.75"/><line x1="737.7731473503457" x2="737.7731473503457" y1="303.12033333333335" y2="302.69263333333333" stroke="#2a78d6" stroke-width="1.5" opacity="0.75"/><line x1="733.7731473503457" x2="741.7731473503457" y1="302.69263333333333" y2="302.69263333333333" stroke="#2a78d6" stroke-width="1.5" opacity="0.75"/><line x1="773.4706279704321" x2="773.4706279704321" y1="303.09" y2="302.53793333333334" stroke="#2a78d6" stroke-width="1.5" opacity="0.75"/><line x1="769.4706279704321" x2="777.4706279704321" y1="302.53793333333334" y2="302.53793333333334" stroke="#2a78d6" stroke-width="1.5" opacity="0.75"/><line x1="821.9090909090909" x2="821.9090909090909" y1="303.02933333333334" y2="302.8473333333333" stroke="#2a78d6" stroke-width="1.5" opacity="0.75"/><line x1="817.9090909090909" x2="825.9090909090909" y1="302.8473333333333" y2="302.8473333333333" stroke="#2a78d6" stroke-width="1.5" opacity="0.75"/><path d="M500.1 303.0L661.0 302.8L737.8 303.1L773.5 303.1L821.9 303.0" fill="none" stroke="#2a78d6" stroke-width="2" stroke-dasharray="" stroke-linejoin="round"/><g fill="#2a78d6" stroke="#fcfcfb" stroke-width="2"><circle cx="500.09090909090907" cy="302.96866666666665" r="4.5"/><circle cx="661" cy="302.8473333333333" r="4.5"/><circle cx="737.7731473503457" cy="303.12033333333335" r="4.5"/><circle cx="773.4706279704321" cy="303.09" r="4.5"/><circle cx="821.9090909090909" cy="303.02933333333334" r="4.5"/></g><text x="661" y="336" font-size="11" fill="#5f5e5a" text-anchor="middle">N (skala log.)</text><text x="904" y="108" font-size="14" font-weight="600" fill="#1f1f1e">Wejście: sterta JS</text><text x="1258" y="108" font-size="11" fill="#5f5e5a" text-anchor="end">MB</text><line x1="904" x2="1258" y1="304" y2="304" stroke="#e4e3de"/><text x="898" y="308" font-size="11" fill="#5f5e5a" text-anchor="end">0</text><line x1="904" x2="1258" y1="243.33333333333334" y2="243.33333333333334" stroke="#e4e3de"/><text x="898" y="247.33333333333334" font-size="11" fill="#5f5e5a" text-anchor="end">200</text><line x1="904" x2="1258" y1="182.66666666666669" y2="182.66666666666669" stroke="#e4e3de"/><text x="898" y="186.66666666666669" font-size="11" fill="#5f5e5a" text-anchor="end">400</text><line x1="904" x2="1258" y1="122" y2="122" stroke="#e4e3de"/><text x="898" y="126" font-size="11" fill="#5f5e5a" text-anchor="end">600</text><line x1="904" x2="1258" y1="304" y2="304" stroke="#a8a79f"/><text x="920.0909090909091" y="320" font-size="11" fill="#5f5e5a" text-anchor="middle">100</text><text x="1081" y="320" font-size="11" fill="#5f5e5a" text-anchor="middle">1000</text><text x="1157.7731473503457" y="320" font-size="11" fill="#5f5e5a" text-anchor="middle">3000</text><text x="1193.4706279704321" y="320" font-size="11" fill="#5f5e5a" text-anchor="middle">5000</text><text x="1241.909090909091" y="320" font-size="11" fill="#5f5e5a" text-anchor="middle">10 tys.</text><line x1="920.0909090909091" x2="920.0909090909091" y1="298.80352204666667" y2="298.789558946" stroke="#eb6834" stroke-width="1.5" opacity="0.75"/><line x1="916.0909090909091" x2="924.0909090909091" y1="298.789558946" y2="298.789558946" stroke="#eb6834" stroke-width="1.5" opacity="0.75"/><line x1="1081" x2="1081" y1="288.84834772666665" y2="283.91142810266666" stroke="#eb6834" stroke-width="1.5" opacity="0.75"/><line x1="1077" x2="1085" y1="283.91142810266666" y2="283.91142810266666" stroke="#eb6834" stroke-width="1.5" opacity="0.75"/><line x1="1157.7731473503457" x2="1157.7731473503457" y1="234.37770968666666" y2="227.57258172066668" stroke="#eb6834" stroke-width="1.5" opacity="0.75"/><line x1="1153.7731473503457" x2="1161.7731473503457" y1="227.57258172066668" y2="227.57258172066668" stroke="#eb6834" stroke-width="1.5" opacity="0.75"/><line x1="1193.4706279704321" x2="1193.4706279704321" y1="152.753541" y2="145.10059927933335" stroke="#eb6834" stroke-width="1.5" opacity="0.75"/><line x1="1189.4706279704321" x2="1197.4706279704321" y1="145.10059927933335" y2="145.10059927933335" stroke="#eb6834" stroke-width="1.5" opacity="0.75"/><path d="M920.1 298.8L1081.0 288.8L1157.8 234.4L1193.5 152.8" fill="none" stroke="#eb6834" stroke-width="2" stroke-dasharray="6 4" stroke-linejoin="round"/><g fill="#eb6834" stroke="#fcfcfb" stroke-width="2"><rect x="915.5909090909091" y="294.30352204666667" width="9" height="9" rx="1"/><rect x="1076.5" y="284.34834772666665" width="9" height="9" rx="1"/><rect x="1153.2731473503457" y="229.87770968666666" width="9" height="9" rx="1"/><rect x="1188.9706279704321" y="148.253541" width="9" height="9" rx="1"/></g><line x1="920.0909090909091" x2="920.0909090909091" y1="300.50353248" y2="300.488994866" stroke="#2a78d6" stroke-width="1.5" opacity="0.75"/><line x1="916.0909090909091" x2="924.0909090909091" y1="300.488994866" y2="300.488994866" stroke="#2a78d6" stroke-width="1.5" opacity="0.75"/><line x1="1081" x2="1081" y1="300.49255424" y2="300.479457338" stroke="#2a78d6" stroke-width="1.5" opacity="0.75"/><line x1="1077" x2="1085" y1="300.479457338" y2="300.479457338" stroke="#2a78d6" stroke-width="1.5" opacity="0.75"/><line x1="1157.7731473503457" x2="1157.7731473503457" y1="300.49742638" y2="300.48700803266667" stroke="#2a78d6" stroke-width="1.5" opacity="0.75"/><line x1="1153.7731473503457" x2="1161.7731473503457" y1="300.48700803266667" y2="300.48700803266667" stroke="#2a78d6" stroke-width="1.5" opacity="0.75"/><line x1="1193.4706279704321" x2="1193.4706279704321" y1="300.49651516666665" y2="300.4888462326667" stroke="#2a78d6" stroke-width="1.5" opacity="0.75"/><line x1="1189.4706279704321" x2="1197.4706279704321" y1="300.4888462326667" y2="300.4888462326667" stroke="#2a78d6" stroke-width="1.5" opacity="0.75"/><line x1="1241.909090909091" x2="1241.909090909091" y1="300.4931882066667" y2="300.48538435" stroke="#2a78d6" stroke-width="1.5" opacity="0.75"/><line x1="1237.909090909091" x2="1245.909090909091" y1="300.48538435" y2="300.48538435" stroke="#2a78d6" stroke-width="1.5" opacity="0.75"/><path d="M920.1 300.5L1081.0 300.5L1157.8 300.5L1193.5 300.5L1241.9 300.5" fill="none" stroke="#2a78d6" stroke-width="2" stroke-dasharray="" stroke-linejoin="round"/><g fill="#2a78d6" stroke="#fcfcfb" stroke-width="2"><circle cx="920.0909090909091" cy="300.50353248" r="4.5"/><circle cx="1081" cy="300.49255424" r="4.5"/><circle cx="1157.7731473503457" cy="300.49742638" r="4.5"/><circle cx="1193.4706279704321" cy="300.49651516666665" r="4.5"/><circle cx="1241.909090909091" cy="300.4931882066667" r="4.5"/></g><text x="1081" y="336" font-size="11" fill="#5f5e5a" text-anchor="middle">N (skala log.)</text><text x="64" y="358" font-size="14" font-weight="600" fill="#1f1f1e">Wejście: węzły DOM</text><text x="418" y="358" font-size="11" fill="#5f5e5a" text-anchor="end">tys. węzłów</text><line x1="64" x2="418" y1="554" y2="554" stroke="#e4e3de"/><text x="58" y="558" font-size="11" fill="#5f5e5a" text-anchor="end">0</text><line x1="64" x2="418" y1="493.3333333333333" y2="493.3333333333333" stroke="#e4e3de"/><text x="58" y="497.3333333333333" font-size="11" fill="#5f5e5a" text-anchor="end">100</text><line x1="64" x2="418" y1="432.6666666666667" y2="432.6666666666667" stroke="#e4e3de"/><text x="58" y="436.6666666666667" font-size="11" fill="#5f5e5a" text-anchor="end">200</text><line x1="64" x2="418" y1="372" y2="372" stroke="#e4e3de"/><text x="58" y="376" font-size="11" fill="#5f5e5a" text-anchor="end">300</text><line x1="64" x2="418" y1="554" y2="554" stroke="#a8a79f"/><text x="80.0909090909091" y="570" font-size="11" fill="#5f5e5a" text-anchor="middle">100</text><text x="241" y="570" font-size="11" fill="#5f5e5a" text-anchor="middle">1000</text><text x="317.7731473503457" y="570" font-size="11" fill="#5f5e5a" text-anchor="middle">3000</text><text x="353.4706279704321" y="570" font-size="11" fill="#5f5e5a" text-anchor="middle">5000</text><text x="401.9090909090909" y="570" font-size="11" fill="#5f5e5a" text-anchor="middle">10 tys.</text><path d="M80.1 551.1L241.0 526.3L317.8 470.8L353.5 415.0" fill="none" stroke="#eb6834" stroke-width="2" stroke-dasharray="6 4" stroke-linejoin="round"/><g fill="#eb6834" stroke="#fcfcfb" stroke-width="2"><rect x="75.5909090909091" y="546.5522066666666" width="9" height="9" rx="1"/><rect x="236.5" y="521.8044533333333" width="9" height="9" rx="1"/><rect x="313.2731473503457" y="466.26290666666665" width="9" height="9" rx="1"/><rect x="348.9706279704321" y="410.5205533333333" width="9" height="9" rx="1"/></g><path d="M80.1 553.5L241.0 553.5L317.8 553.5L353.5 553.5L401.9 553.5" fill="none" stroke="#2a78d6" stroke-width="2" stroke-dasharray="" stroke-linejoin="round"/><g fill="#2a78d6" stroke="#fcfcfb" stroke-width="2"><circle cx="80.0909090909091" cy="553.52316" r="4.5"/><circle cx="241" cy="553.51406" r="4.5"/><circle cx="317.7731473503457" cy="553.5201266666667" r="4.5"/><circle cx="353.4706279704321" cy="553.5170933333334" r="4.5"/><circle cx="401.9090909090909" cy="553.5170933333334" r="4.5"/></g><text x="241" y="586" font-size="11" fill="#5f5e5a" text-anchor="middle">N (skala log.)</text><text x="484" y="358" font-size="14" font-weight="600" fill="#1f1f1e">Wejście: transfer API</text><text x="838" y="358" font-size="11" fill="#5f5e5a" text-anchor="end">MB</text><line x1="484" x2="838" y1="554" y2="554" stroke="#e4e3de"/><text x="478" y="558" font-size="11" fill="#5f5e5a" text-anchor="end">0</text><line x1="484" x2="838" y1="508.5" y2="508.5" stroke="#e4e3de"/><text x="478" y="512.5" font-size="11" fill="#5f5e5a" text-anchor="end">2</text><line x1="484" x2="838" y1="463" y2="463" stroke="#e4e3de"/><text x="478" y="467" font-size="11" fill="#5f5e5a" text-anchor="end">4</text><line x1="484" x2="838" y1="417.5" y2="417.5" stroke="#e4e3de"/><text x="478" y="421.5" font-size="11" fill="#5f5e5a" text-anchor="end">6</text><line x1="484" x2="838" y1="372" y2="372" stroke="#e4e3de"/><text x="478" y="376" font-size="11" fill="#5f5e5a" text-anchor="end">8</text><line x1="484" x2="838" y1="554" y2="554" stroke="#a8a79f"/><text x="500.09090909090907" y="570" font-size="11" fill="#5f5e5a" text-anchor="middle">100</text><text x="661" y="570" font-size="11" fill="#5f5e5a" text-anchor="middle">1000</text><text x="737.7731473503457" y="570" font-size="11" fill="#5f5e5a" text-anchor="middle">3000</text><text x="773.4706279704321" y="570" font-size="11" fill="#5f5e5a" text-anchor="middle">5000</text><text x="821.9090909090909" y="570" font-size="11" fill="#5f5e5a" text-anchor="middle">10 tys.</text><line x1="661" x2="661" y1="536.825206" y2="536.8251059" stroke="#eb6834" stroke-width="1.5" opacity="0.75"/><line x1="657" x2="665" y1="536.8251059" y2="536.8251059" stroke="#eb6834" stroke-width="1.5" opacity="0.75"/><line x1="737.7731473503457" x2="737.7731473503457" y1="450.681603" y2="450.6812845" stroke="#eb6834" stroke-width="1.5" opacity="0.75"/><line x1="733.7731473503457" x2="741.7731473503457" y1="450.6812845" y2="450.6812845" stroke="#eb6834" stroke-width="1.5" opacity="0.75"/><line x1="773.4706279704321" x2="773.4706279704321" y1="381.304659" y2="381.304568" stroke="#eb6834" stroke-width="1.5" opacity="0.75"/><line x1="769.4706279704321" x2="777.4706279704321" y1="381.304568" y2="381.304568" stroke="#eb6834" stroke-width="1.5" opacity="0.75"/><path d="M500.1 552.2L661.0 536.8L737.8 450.7L773.5 381.3" fill="none" stroke="#eb6834" stroke-width="2" stroke-dasharray="6 4" stroke-linejoin="round"/><g fill="#eb6834" stroke="#fcfcfb" stroke-width="2"><rect x="495.59090909090907" y="547.7378305" width="9" height="9" rx="1"/><rect x="656.5" y="532.325206" width="9" height="9" rx="1"/><rect x="733.2731473503457" y="446.181603" width="9" height="9" rx="1"/><rect x="768.9706279704321" y="376.804659" width="9" height="9" rx="1"/></g><path d="M500.1 553.7L661.0 553.7L737.8 553.7L773.5 553.7L821.9 553.7" fill="none" stroke="#2a78d6" stroke-width="2" stroke-dasharray="" stroke-linejoin="round"/><g fill="#2a78d6" stroke="#fcfcfb" stroke-width="2"><circle cx="500.09090909090907" cy="553.650014" r="4.5"/><circle cx="661" cy="553.65217525" r="4.5"/><circle cx="737.7731473503457" cy="553.6504235" r="4.5"/><circle cx="773.4706279704321" cy="553.65185675" r="4.5"/><circle cx="821.9090909090909" cy="553.65121975" r="4.5"/></g><text x="661" y="586" font-size="11" fill="#5f5e5a" text-anchor="middle">N (skala log.)</text><text x="904" y="358" font-size="14" font-weight="600" fill="#1f1f1e">Przewinięcie do końca listy</text><text x="1258" y="358" font-size="11" fill="#5f5e5a" text-anchor="end">s</text><line x1="904" x2="1258" y1="554" y2="554" stroke="#e4e3de"/><text x="898" y="558" font-size="11" fill="#5f5e5a" text-anchor="end">0</text><line x1="904" x2="1258" y1="508.5" y2="508.5" stroke="#e4e3de"/><text x="898" y="512.5" font-size="11" fill="#5f5e5a" text-anchor="end">25</text><line x1="904" x2="1258" y1="463" y2="463" stroke="#e4e3de"/><text x="898" y="467" font-size="11" fill="#5f5e5a" text-anchor="end">50</text><line x1="904" x2="1258" y1="417.5" y2="417.5" stroke="#e4e3de"/><text x="898" y="421.5" font-size="11" fill="#5f5e5a" text-anchor="end">75</text><line x1="904" x2="1258" y1="372" y2="372" stroke="#e4e3de"/><text x="898" y="376" font-size="11" fill="#5f5e5a" text-anchor="end">100</text><line x1="904" x2="1258" y1="554" y2="554" stroke="#a8a79f"/><text x="920.0909090909091" y="570" font-size="11" fill="#5f5e5a" text-anchor="middle">100</text><text x="1081" y="570" font-size="11" fill="#5f5e5a" text-anchor="middle">1000</text><text x="1157.7731473503457" y="570" font-size="11" fill="#5f5e5a" text-anchor="middle">3000</text><text x="1193.4706279704321" y="570" font-size="11" fill="#5f5e5a" text-anchor="middle">5000</text><text x="1241.909090909091" y="570" font-size="11" fill="#5f5e5a" text-anchor="middle">10 tys.</text><line x1="920.0909090909091" x2="920.0909090909091" y1="553.392939" y2="553.3463288" stroke="#eb6834" stroke-width="1.5" opacity="0.75"/><line x1="916.0909090909091" x2="924.0909090909091" y1="553.3463288" y2="553.3463288" stroke="#eb6834" stroke-width="1.5" opacity="0.75"/><line x1="1081" x2="1081" y1="547.753123" y2="547.6000428" stroke="#eb6834" stroke-width="1.5" opacity="0.75"/><line x1="1077" x2="1085" y1="547.6000428" y2="547.6000428" stroke="#eb6834" stroke-width="1.5" opacity="0.75"/><line x1="1157.7731473503457" x2="1157.7731473503457" y1="535.646483" y2="535.5621169" stroke="#eb6834" stroke-width="1.5" opacity="0.75"/><line x1="1153.7731473503457" x2="1161.7731473503457" y1="535.5621169" y2="535.5621169" stroke="#eb6834" stroke-width="1.5" opacity="0.75"/><line x1="1193.4706279704321" x2="1193.4706279704321" y1="522.050537" y2="521.232356" stroke="#eb6834" stroke-width="1.5" opacity="0.75"/><line x1="1189.4706279704321" x2="1197.4706279704321" y1="521.232356" y2="521.232356" stroke="#eb6834" stroke-width="1.5" opacity="0.75"/><path d="M920.1 553.4L1081.0 547.8L1157.8 535.6L1193.5 522.1" fill="none" stroke="#eb6834" stroke-width="2" stroke-dasharray="6 4" stroke-linejoin="round"/><g fill="#eb6834" stroke="#fcfcfb" stroke-width="2"><rect x="915.5909090909091" y="548.892939" width="9" height="9" rx="1"/><rect x="1076.5" y="543.253123" width="9" height="9" rx="1"/><rect x="1153.2731473503457" y="531.146483" width="9" height="9" rx="1"/><rect x="1188.9706279704321" y="517.550537" width="9" height="9" rx="1"/></g><line x1="920.0909090909091" x2="920.0909090909091" y1="552.577397" y2="552.41569" stroke="#2a78d6" stroke-width="1.5" opacity="0.75"/><line x1="916.0909090909091" x2="924.0909090909091" y1="552.41569" y2="552.41569" stroke="#2a78d6" stroke-width="1.5" opacity="0.75"/><line x1="1081" x2="1081" y1="537.749857" y2="536.016671" stroke="#2a78d6" stroke-width="1.5" opacity="0.75"/><line x1="1077" x2="1085" y1="536.016671" y2="536.016671" stroke="#2a78d6" stroke-width="1.5" opacity="0.75"/><line x1="1157.7731473503457" x2="1157.7731473503457" y1="504.92643" y2="504.22678559999997" stroke="#2a78d6" stroke-width="1.5" opacity="0.75"/><line x1="1153.7731473503457" x2="1161.7731473503457" y1="504.22678559999997" y2="504.22678559999997" stroke="#2a78d6" stroke-width="1.5" opacity="0.75"/><line x1="1193.4706279704321" x2="1193.4706279704321" y1="473.536526" y2="471.766758" stroke="#2a78d6" stroke-width="1.5" opacity="0.75"/><line x1="1189.4706279704321" x2="1197.4706279704321" y1="471.766758" y2="471.766758" stroke="#2a78d6" stroke-width="1.5" opacity="0.75"/><line x1="1241.909090909091" x2="1241.909090909091" y1="388.111004" y2="386.43301859999997" stroke="#2a78d6" stroke-width="1.5" opacity="0.75"/><line x1="1237.909090909091" x2="1245.909090909091" y1="386.43301859999997" y2="386.43301859999997" stroke="#2a78d6" stroke-width="1.5" opacity="0.75"/><path d="M920.1 552.6L1081.0 537.7L1157.8 504.9L1193.5 473.5L1241.9 388.1" fill="none" stroke="#2a78d6" stroke-width="2" stroke-dasharray="" stroke-linejoin="round"/><g fill="#2a78d6" stroke="#fcfcfb" stroke-width="2"><circle cx="920.0909090909091" cy="552.577397" r="4.5"/><circle cx="1081" cy="537.749857" r="4.5"/><circle cx="1157.7731473503457" cy="504.92643" r="4.5"/><circle cx="1193.4706279704321" cy="473.536526" r="4.5"/><circle cx="1241.909090909091" cy="388.111004" r="4.5"/></g><text x="1081" y="586" font-size="11" fill="#5f5e5a" text-anchor="middle">N (skala log.)</text><text x="64" y="608" font-size="14" font-weight="600" fill="#1f1f1e">Do końca listy: transfer API</text><text x="418" y="608" font-size="11" fill="#5f5e5a" text-anchor="end">MB</text><line x1="64" x2="418" y1="804" y2="804" stroke="#e4e3de"/><text x="58" y="808" font-size="11" fill="#5f5e5a" text-anchor="end">0</text><line x1="64" x2="418" y1="758.5" y2="758.5" stroke="#e4e3de"/><text x="58" y="762.5" font-size="11" fill="#5f5e5a" text-anchor="end">2</text><line x1="64" x2="418" y1="713" y2="713" stroke="#e4e3de"/><text x="58" y="717" font-size="11" fill="#5f5e5a" text-anchor="end">4</text><line x1="64" x2="418" y1="667.5" y2="667.5" stroke="#e4e3de"/><text x="58" y="671.5" font-size="11" fill="#5f5e5a" text-anchor="end">6</text><line x1="64" x2="418" y1="622" y2="622" stroke="#e4e3de"/><text x="58" y="626" font-size="11" fill="#5f5e5a" text-anchor="end">8</text><line x1="64" x2="418" y1="804" y2="804" stroke="#a8a79f"/><text x="80.0909090909091" y="820" font-size="11" fill="#5f5e5a" text-anchor="middle">100</text><text x="241" y="820" font-size="11" fill="#5f5e5a" text-anchor="middle">1000</text><text x="317.7731473503457" y="820" font-size="11" fill="#5f5e5a" text-anchor="middle">3000</text><text x="353.4706279704321" y="820" font-size="11" fill="#5f5e5a" text-anchor="middle">5000</text><text x="401.9090909090909" y="820" font-size="11" fill="#5f5e5a" text-anchor="middle">10 tys.</text><path d="M80.1 804.0L241.0 804.0L317.8 804.0L353.5 804.0" fill="none" stroke="#eb6834" stroke-width="2" stroke-dasharray="6 4" stroke-linejoin="round"/><g fill="#eb6834" stroke="#fcfcfb" stroke-width="2"><rect x="75.5909090909091" y="799.5" width="9" height="9" rx="1"/><rect x="236.5" y="799.5" width="9" height="9" rx="1"/><rect x="313.2731473503457" y="799.5" width="9" height="9" rx="1"/><rect x="348.9706279704321" y="799.5" width="9" height="9" rx="1"/></g><path d="M80.1 802.7L241.0 788.4L317.8 756.4L353.5 724.2L401.9 644.3" fill="none" stroke="#2a78d6" stroke-width="2" stroke-dasharray="" stroke-linejoin="round"/><g fill="#2a78d6" stroke="#fcfcfb" stroke-width="2"><circle cx="80.0909090909091" cy="802.7193115" r="4.5"/><circle cx="241" cy="788.4256685" r="4.5"/><circle cx="317.7731473503457" cy="756.39655775" r="4.5"/><circle cx="353.4706279704321" cy="724.203283" r="4.5"/><circle cx="401.9090909090909" cy="644.26995225" r="4.5"/></g><text x="241" y="836" font-size="11" fill="#5f5e5a" text-anchor="middle">N (skala log.)</text><text x="484" y="608" font-size="14" font-weight="600" fill="#1f1f1e">Zmiana filtra</text><text x="838" y="608" font-size="11" fill="#5f5e5a" text-anchor="end">ms</text><line x1="484" x2="838" y1="804" y2="804" stroke="#e4e3de"/><text x="478" y="808" font-size="11" fill="#5f5e5a" text-anchor="end">0</text><line x1="484" x2="838" y1="758.5" y2="758.5" stroke="#e4e3de"/><text x="478" y="762.5" font-size="11" fill="#5f5e5a" text-anchor="end">100</text><line x1="484" x2="838" y1="713" y2="713" stroke="#e4e3de"/><text x="478" y="717" font-size="11" fill="#5f5e5a" text-anchor="end">200</text><line x1="484" x2="838" y1="667.5" y2="667.5" stroke="#e4e3de"/><text x="478" y="671.5" font-size="11" fill="#5f5e5a" text-anchor="end">300</text><line x1="484" x2="838" y1="622" y2="622" stroke="#e4e3de"/><text x="478" y="626" font-size="11" fill="#5f5e5a" text-anchor="end">400</text><line x1="484" x2="838" y1="804" y2="804" stroke="#a8a79f"/><text x="500.09090909090907" y="820" font-size="11" fill="#5f5e5a" text-anchor="middle">100</text><text x="661" y="820" font-size="11" fill="#5f5e5a" text-anchor="middle">1000</text><text x="737.7731473503457" y="820" font-size="11" fill="#5f5e5a" text-anchor="middle">3000</text><text x="773.4706279704321" y="820" font-size="11" fill="#5f5e5a" text-anchor="middle">5000</text><text x="821.9090909090909" y="820" font-size="11" fill="#5f5e5a" text-anchor="middle">10 tys.</text><line x1="500.09090909090907" x2="500.09090909090907" y1="795.719" y2="794.870425" stroke="#eb6834" stroke-width="1.5" opacity="0.75"/><line x1="496.09090909090907" x2="504.09090909090907" y1="794.870425" y2="794.870425" stroke="#eb6834" stroke-width="1.5" opacity="0.75"/><line x1="661" x2="661" y1="772.787" y2="769.563325" stroke="#eb6834" stroke-width="1.5" opacity="0.75"/><line x1="657" x2="665" y1="769.563325" y2="769.563325" stroke="#eb6834" stroke-width="1.5" opacity="0.75"/><line x1="737.7731473503457" x2="737.7731473503457" y1="702.60325" y2="691.885725" stroke="#eb6834" stroke-width="1.5" opacity="0.75"/><line x1="733.7731473503457" x2="741.7731473503457" y1="691.885725" y2="691.885725" stroke="#eb6834" stroke-width="1.5" opacity="0.75"/><line x1="773.4706279704321" x2="773.4706279704321" y1="643.8172500000001" y2="633.6389" stroke="#eb6834" stroke-width="1.5" opacity="0.75"/><line x1="769.4706279704321" x2="777.4706279704321" y1="633.6389" y2="633.6389" stroke="#eb6834" stroke-width="1.5" opacity="0.75"/><path d="M500.1 795.7L661.0 772.8L737.8 702.6L773.5 643.8" fill="none" stroke="#eb6834" stroke-width="2" stroke-dasharray="6 4" stroke-linejoin="round"/><g fill="#eb6834" stroke="#fcfcfb" stroke-width="2"><rect x="495.59090909090907" y="791.219" width="9" height="9" rx="1"/><rect x="656.5" y="768.287" width="9" height="9" rx="1"/><rect x="733.2731473503457" y="698.10325" width="9" height="9" rx="1"/><rect x="768.9706279704321" y="639.3172500000001" width="9" height="9" rx="1"/></g><line x1="500.09090909090907" x2="500.09090909090907" y1="767.44075" y2="765.52975" stroke="#2a78d6" stroke-width="1.5" opacity="0.75"/><line x1="496.09090909090907" x2="504.09090909090907" y1="765.52975" y2="765.52975" stroke="#2a78d6" stroke-width="1.5" opacity="0.75"/><line x1="661" x2="661" y1="767.782" y2="766.053" stroke="#2a78d6" stroke-width="1.5" opacity="0.75"/><line x1="657" x2="665" y1="766.053" y2="766.053" stroke="#2a78d6" stroke-width="1.5" opacity="0.75"/><line x1="737.7731473503457" x2="737.7731473503457" y1="768.9422500000001" y2="767.433925" stroke="#2a78d6" stroke-width="1.5" opacity="0.75"/><line x1="733.7731473503457" x2="741.7731473503457" y1="767.433925" y2="767.433925" stroke="#2a78d6" stroke-width="1.5" opacity="0.75"/><line x1="773.4706279704321" x2="773.4706279704321" y1="770.39825" y2="768.67835" stroke="#2a78d6" stroke-width="1.5" opacity="0.75"/><line x1="769.4706279704321" x2="777.4706279704321" y1="768.67835" y2="768.67835" stroke="#2a78d6" stroke-width="1.5" opacity="0.75"/><line x1="821.9090909090909" x2="821.9090909090909" y1="771.24" y2="769.572425" stroke="#2a78d6" stroke-width="1.5" opacity="0.75"/><line x1="817.9090909090909" x2="825.9090909090909" y1="769.572425" y2="769.572425" stroke="#2a78d6" stroke-width="1.5" opacity="0.75"/><path d="M500.1 767.4L661.0 767.8L737.8 768.9L773.5 770.4L821.9 771.2" fill="none" stroke="#2a78d6" stroke-width="2" stroke-dasharray="" stroke-linejoin="round"/><g fill="#2a78d6" stroke="#fcfcfb" stroke-width="2"><circle cx="500.09090909090907" cy="767.44075" r="4.5"/><circle cx="661" cy="767.782" r="4.5"/><circle cx="737.7731473503457" cy="768.9422500000001" r="4.5"/><circle cx="773.4706279704321" cy="770.39825" r="4.5"/><circle cx="821.9090909090909" cy="771.24" r="4.5"/></g><text x="661" y="836" font-size="11" fill="#5f5e5a" text-anchor="middle">N (skala log.)</text><text x="904" y="608" font-size="14" font-weight="600" fill="#1f1f1e">Zmiana sortowania</text><text x="1258" y="608" font-size="11" fill="#5f5e5a" text-anchor="end">s</text><line x1="904" x2="1258" y1="804" y2="804" stroke="#e4e3de"/><text x="898" y="808" font-size="11" fill="#5f5e5a" text-anchor="end">0</text><line x1="904" x2="1258" y1="743.3333333333334" y2="743.3333333333334" stroke="#e4e3de"/><text x="898" y="747.3333333333334" font-size="11" fill="#5f5e5a" text-anchor="end">2</text><line x1="904" x2="1258" y1="682.6666666666666" y2="682.6666666666666" stroke="#e4e3de"/><text x="898" y="686.6666666666666" font-size="11" fill="#5f5e5a" text-anchor="end">4</text><line x1="904" x2="1258" y1="622" y2="622" stroke="#e4e3de"/><text x="898" y="626" font-size="11" fill="#5f5e5a" text-anchor="end">6</text><line x1="904" x2="1258" y1="804" y2="804" stroke="#a8a79f"/><text x="920.0909090909091" y="820" font-size="11" fill="#5f5e5a" text-anchor="middle">100</text><text x="1081" y="820" font-size="11" fill="#5f5e5a" text-anchor="middle">1000</text><text x="1157.7731473503457" y="820" font-size="11" fill="#5f5e5a" text-anchor="middle">3000</text><text x="1193.4706279704321" y="820" font-size="11" fill="#5f5e5a" text-anchor="middle">5000</text><text x="1241.909090909091" y="820" font-size="11" fill="#5f5e5a" text-anchor="middle">10 tys.</text><line x1="920.0909090909091" x2="920.0909090909091" y1="803.0687666666666" y2="802.978525" stroke="#eb6834" stroke-width="1.5" opacity="0.75"/><line x1="916.0909090909091" x2="924.0909090909091" y1="802.978525" y2="802.978525" stroke="#eb6834" stroke-width="1.5" opacity="0.75"/><line x1="1081" x2="1081" y1="792.12905" y2="791.71045" stroke="#eb6834" stroke-width="1.5" opacity="0.75"/><line x1="1077" x2="1085" y1="791.71045" y2="791.71045" stroke="#eb6834" stroke-width="1.5" opacity="0.75"/><line x1="1157.7731473503457" x2="1157.7731473503457" y1="750.2993833333334" y2="749.051925" stroke="#eb6834" stroke-width="1.5" opacity="0.75"/><line x1="1153.7731473503457" x2="1161.7731473503457" y1="749.051925" y2="749.051925" stroke="#eb6834" stroke-width="1.5" opacity="0.75"/><line x1="1193.4706279704321" x2="1193.4706279704321" y1="656.92125" y2="650.119" stroke="#eb6834" stroke-width="1.5" opacity="0.75"/><line x1="1189.4706279704321" x2="1197.4706279704321" y1="650.119" y2="650.119" stroke="#eb6834" stroke-width="1.5" opacity="0.75"/><path d="M920.1 803.1L1081.0 792.1L1157.8 750.3L1193.5 656.9" fill="none" stroke="#eb6834" stroke-width="2" stroke-dasharray="6 4" stroke-linejoin="round"/><g fill="#eb6834" stroke="#fcfcfb" stroke-width="2"><rect x="915.5909090909091" y="798.5687666666666" width="9" height="9" rx="1"/><rect x="1076.5" y="787.62905" width="9" height="9" rx="1"/><rect x="1153.2731473503457" y="745.7993833333334" width="9" height="9" rx="1"/><rect x="1188.9706279704321" y="652.42125" width="9" height="9" rx="1"/></g><line x1="920.0909090909091" x2="920.0909090909091" y1="801.5869833333334" y2="801.440625" stroke="#2a78d6" stroke-width="1.5" opacity="0.75"/><line x1="916.0909090909091" x2="924.0909090909091" y1="801.440625" y2="801.440625" stroke="#2a78d6" stroke-width="1.5" opacity="0.75"/><line x1="1081" x2="1081" y1="801.5460333333333" y2="801.3967933333333" stroke="#2a78d6" stroke-width="1.5" opacity="0.75"/><line x1="1077" x2="1085" y1="801.3967933333333" y2="801.3967933333333" stroke="#2a78d6" stroke-width="1.5" opacity="0.75"/><line x1="1157.7731473503457" x2="1157.7731473503457" y1="801.4899166666667" y2="801.3911816666666" stroke="#2a78d6" stroke-width="1.5" opacity="0.75"/><line x1="1153.7731473503457" x2="1161.7731473503457" y1="801.3911816666666" y2="801.3911816666666" stroke="#2a78d6" stroke-width="1.5" opacity="0.75"/><line x1="1193.4706279704321" x2="1193.4706279704321" y1="801.4247" y2="801.2451266666667" stroke="#2a78d6" stroke-width="1.5" opacity="0.75"/><line x1="1189.4706279704321" x2="1197.4706279704321" y1="801.2451266666667" y2="801.2451266666667" stroke="#2a78d6" stroke-width="1.5" opacity="0.75"/><line x1="1241.909090909091" x2="1241.909090909091" y1="801.35645" y2="801.2834983333333" stroke="#2a78d6" stroke-width="1.5" opacity="0.75"/><line x1="1237.909090909091" x2="1245.909090909091" y1="801.2834983333333" y2="801.2834983333333" stroke="#2a78d6" stroke-width="1.5" opacity="0.75"/><path d="M920.1 801.6L1081.0 801.5L1157.8 801.5L1193.5 801.4L1241.9 801.4" fill="none" stroke="#2a78d6" stroke-width="2" stroke-dasharray="" stroke-linejoin="round"/><g fill="#2a78d6" stroke="#fcfcfb" stroke-width="2"><circle cx="920.0909090909091" cy="801.5869833333334" r="4.5"/><circle cx="1081" cy="801.5460333333333" r="4.5"/><circle cx="1157.7731473503457" cy="801.4899166666667" r="4.5"/><circle cx="1193.4706279704321" cy="801.4247" r="4.5"/><circle cx="1241.909090909091" cy="801.35645" r="4.5"/></g><text x="1081" y="836" font-size="11" fill="#5f5e5a" text-anchor="middle">N (skala log.)</text></svg>