<svg xmlns="http://www.w3.org/2000/svg" width="864" height="604" viewBox="0 0 864 604" font-family="Segoe UI, Helvetica, Arial, sans-serif"><rect width="864" height="604" fill="#fcfcfb"/><text x="24" y="32" font-size="19" font-weight="600" fill="#1f1f1e">Endpoint listy: old vs new</text><text x="24" y="54" font-size="13" fill="#5f5e5a">bezpośrednie zapytania HTTP, bez przeglądarki</text><line x1="24" x2="52" y1="74" y2="74" stroke="#2a78d6" stroke-width="2" stroke-dasharray=""/><g fill="#2a78d6" stroke="#fcfcfb" stroke-width="2"><circle cx="38" cy="74" r="4.5"/></g><text x="60" y="78" font-size="13" fill="#1f1f1e">new: 1. strona</text><line x1="184.8" x2="212.8" y1="74" y2="74" stroke="#1baf7a" stroke-width="2" stroke-dasharray="2 3"/><g fill="#1baf7a" stroke="#fcfcfb" stroke-width="2"><path d="M198.8 68.15L204.65 74L198.8 79.85L192.95000000000002 74Z"/></g><text x="220.8" y="78" font-size="13" fill="#1f1f1e">new: ostatnia pełna strona</text><line x1="432" x2="460" y1="74" y2="74" stroke="#e87ba4" stroke-width="2" stroke-dasharray="8 3 2 3"/><g fill="#e87ba4" stroke="#fcfcfb" stroke-width="2"><path d="M446 68.15L451.4 78.5L440.6 78.5Z"/></g><text x="468" y="78" font-size="13" fill="#1f1f1e">new: wszystkie strony</text><text x="643.2" y="78" font-size="12" fill="#5f5e5a">punkt/słupek: mediana · wąs: p95</text><text x="64" y="108" font-size="14" font-weight="600" fill="#1f1f1e">Czas całkowity</text><text x="418" y="108" font-size="11" fill="#5f5e5a" text-anchor="end">s</text><line x1="64" x2="418" y1="304" y2="304" stroke="#e4e3de"/><text x="58" y="308" font-size="11" fill="#5f5e5a" text-anchor="end">0</text><line x1="64" x2="418" y1="243.33333333333334" y2="243.33333333333334" stroke="#e4e3de"/><text x="58" y="247.33333333333334" font-size="11" fill="#5f5e5a" text-anchor="end">10</text><line x1="64" x2="418" y1="182.66666666666669" y2="182.66666666666669" stroke="#e4e3de"/><text x="58" y="186.66666666666669" font-size="11" fill="#5f5e5a" text-anchor="end">20</text><line x1="64" x2="418" y1="122" y2="122" stroke="#e4e3de"/><text x="58" y="126" font-size="11" fill="#5f5e5a" text-anchor="end">30</text><line x1="64" x2="418" y1="304" y2="304" stroke="#a8a79f"/><text x="80.0909090909091" y="320" font-size="11" fill="#5f5e5a" text-anchor="middle">100</text><text x="241" y="320" font-size="11" fill="#5f5e5a" text-anchor="middle">1000</text><text x="317.7731473503457" y="320" font-size="11" fill="#5f5e5a" text-anchor="middle">3000</text><text x="401.9090909090909" y="320" font-size="11" fill="#5f5e5a" text-anchor="middle">10 tys.</text><line x1="80.0909090909091" x2="80.0909090909091" y1="303.70917613333336" y2="303.69824491" stroke="#2a78d6" stroke-width="1.5" opacity="0.75"/><line x1="76.0909090909091" x2="84.0909090909091" y1="303.69824491" y2="303.69824491" stroke="#2a78d6" stroke-width="1.5" opacity="0.75"/><line x1="241" x2="241" y1="303.7086210333333" y2="303.69431674333333" stroke="#2a78d6" stroke-width="1.5" opacity="0.75"/><line x1="237" x2="245" y1="303.69431674333333" y2="303.69431674333333" stroke="#2a78d6" stroke-width="1.5" opacity="0.75"/><line x1="317.7731473503457" x2="317.7731473503457" y1="303.7240667666667" y2="303.71311613" stroke="#2a78d6" stroke-width="1.5" opacity="0.75"/><line x1="313.7731473503457" x2="321.7731473503457" y1="303.71311613" y2="303.71311613" stroke="#2a78d6" stroke-width="1.5" opacity="0.75"/><line x1="401.9090909090909" x2="401.9090909090909" y1="303.73603023333334" y2="303.72251309333336" stroke="#2a78d6" stroke-width="1.5" opacity="0.75"/><line x1="397.9090909090909" x2="405.9090909090909" y1="303.72251309333336" y2="303.72251309333336" stroke="#2a78d6" stroke-width="1.5" opacity="0.75"/><path d="M80.1 303.7L241.0 303.7L317.8 303.7L401.9 303.7" fill="none" stroke="#2a78d6" stroke-width="2" stroke-dasharray="" stroke-linejoin="round"/><g fill="#2a78d6" stroke="#fcfcfb" stroke-width="2"><circle cx="80.0909090909091" cy="303.70917613333336" r="4.5"/><circle cx="241" cy="303.7086210333333" r="4.5"/><circle cx="317.7731473503457" cy="303.7240667666667" r="4.5"/><circle cx="401.9090909090909" cy="303.73603023333334" r="4.5"/></g><line x1="80.0909090909091" x2="80.0909090909091" y1="303.7218403" y2="303.7102083766667" stroke="#1baf7a" stroke-width="1.5" opacity="0.75"/><line x1="76.0909090909091" x2="84.0909090909091" y1="303.7102083766667" y2="303.7102083766667" stroke="#1baf7a" stroke-width="1.5" opacity="0.75"/><line x1="241" x2="241" y1="303.7212488" y2="303.70896016" stroke="#1baf7a" stroke-width="1.5" opacity="0.75"/><line x1="237" x2="245" y1="303.70896016" y2="303.70896016" stroke="#1baf7a" stroke-width="1.5" opacity="0.75"/><line x1="317.7731473503457" x2="317.7731473503457" y1="303.738102" y2="303.7142184433333" stroke="#1baf7a" stroke-width="1.5" opacity="0.75"/><line x1="313.7731473503457" x2="321.7731473503457" y1="303.7142184433333" y2="303.7142184433333" stroke="#1baf7a" stroke-width="1.5" opacity="0.75"/><line x1="401.9090909090909" x2="401.9090909090909" y1="303.73108286666667" y2="303.71493977" stroke="#1baf7a" stroke-width="1.5" opacity="0.75"/><line x1="397.9090909090909" x2="405.9090909090909" y1="303.71493977" y2="303.71493977" stroke="#1baf7a" stroke-width="1.5" opacity="0.75"/><path d="M80.1 303.7L241.0 303.7L317.8 303.7L401.9 303.7" fill="none" stroke="#1baf7a" stroke-width="2" stroke-dasharray="2 3" stroke-linejoin="round"/><g fill="#1baf7a" stroke="#fcfcfb" stroke-width="2"><path d="M80.0909090909091 297.8718403L85.94090909090909 303.7218403L80.0909090909091 309.5718403L74.2409090909091 303.7218403Z"/><path d="M241 297.8712488L246.85 303.7212488L241 309.57124880000003L235.15 303.7212488Z"/><path d="M317.7731473503457 297.888102L323.62314735034573 303.738102L317.7731473503457 309.58810200000005L311.9231473503457 303.738102Z"/><path d="M401.9090909090909 297.88108286666665L407.7590909090909 303.73108286666667L401.9090909090909 309.5810828666667L396.05909090909086 303.73108286666667Z"/></g><line x1="80.0909090909091" x2="80.0909090909091" y1="302.5989094" y2="302.56905169333334" stroke="#e87ba4" stroke-width="1.5" opacity="0.75"/><line x1="76.0909090909091" x2="84.0909090909091" y1="302.56905169333334" y2="302.56905169333334" stroke="#e87ba4" stroke-width="1.5" opacity="0.75"/><line x1="241" x2="241" y1="290.9092617333333" y2="290.79524237333334" stroke="#e87ba4" stroke-width="1.5" opacity="0.75"/><line x1="237" x2="245" y1="290.79524237333334" y2="290.79524237333334" stroke="#e87ba4" stroke-width="1.5" opacity="0.75"/><line x1="317.7731473503457" x2="317.7731473503457" y1="265.20124" y2="264.65869072" stroke="#e87ba4" stroke-width="1.5" opacity="0.75"/><line x1="313.7731473503457" x2="321.7731473503457" y1="264.65869072" y2="264.65869072" stroke="#e87ba4" stroke-width="1.5" opacity="0.75"/><line x1="401.9090909090909" x2="401.9090909090909" y1="177.63476099999997" y2="175.7672541466667" stroke="#e87ba4" stroke-width="1.5" opacity="0.75"/><line x1="397.9090909090909" x2="405.9090909090909" y1="175.7672541466667" y2="175.7672541466667" stroke="#e87ba4" stroke-width="1.5" opacity="0.75"/><path d="M80.1 302.6L241.0 290.9L317.8 265.2L401.9 177.6" fill="none" stroke="#e87ba4" stroke-width="2" stroke-dasharray="8 3 2 3" stroke-linejoin="round"/><g fill="#e87ba4" stroke="#fcfcfb" stroke-width="2"><path d="M80.0909090909091 296.7489094L85.4909090909091 307.0989094L74.69090909090909 307.0989094Z"/><path d="M241 285.0592617333333L246.4 295.4092617333333L235.6 295.4092617333333Z"/><path d="M317.7731473503457 259.35123999999996L323.1731473503457 269.70124L312.37314735034573 269.70124Z"/><path d="M401.9090909090909 171.78476099999997L407.30909090909086 182.13476099999997L396.5090909090909 182.13476099999997Z"/></g><text x="241" y="336" font-size="11" fill="#5f5e5a" text-anchor="middle">N (skala log.)</text><text x="484" y="108" font-size="14" font-weight="600" fill="#1f1f1e">Czas do pierwszego bajtu</text><text x="838" y="108" font-size="11" fill="#5f5e5a" text-anchor="end">s</text><line x1="484" x2="838" y1="304" y2="304" stroke="#e4e3de"/><text x="478" y="308" font-size="11" fill="#5f5e5a" text-anchor="end">0</text><line x1="484" x2="838" y1="243.33333333333334" y2="243.33333333333334" stroke="#e4e3de"/><text x="478" y="247.33333333333334" font-size="11" fill="#5f5e5a" text-anchor="end">10</text><line x1="484" x2="838" y1="182.66666666666669" y2="182.66666666666669" stroke="#e4e3de"/><text x="478" y="186.66666666666669" font-size="11" fill="#5f5e5a" text-anchor="end">20</text><line x1="484" x2="838" y1="122" y2="122" stroke="#e4e3de"/><text x="478" y="126" font-size="11" fill="#5f5e5a" text-anchor="end">30</text><line x1="484" x2="838" y1="304" y2="304" stroke="#a8a79f"/><text x="500.09090909090907" y="320" font-size="11" fill="#5f5e5a" text-anchor="middle">100</text><text x="661" y="320" font-size="11" fill="#5f5e5a" text-anchor="middle">1000</text><text x="737.7731473503457" y="320" font-size="11" fill="#5f5e5a" text-anchor="middle">3000</text><text x="821.9090909090909" y="320" font-size="11" fill="#5f5e5a" text-anchor="middle">10 tys.</text><line x1="500.09090909090907" x2="500.09090909090907" y1="303.70994963333334" y2="303.69882094" stroke="#2a78d6" stroke-width="1.5" opacity="0.75"/><line x1="496.09090909090907" x2="504.09090909090907" y1="303.69882094" y2="303.69882094" stroke="#2a78d6" stroke-width="1.5" opacity="0.75"/><line x1="661" x2="661" y1="303.7090972666667" y2="303.6947781133333" stroke="#2a78d6" stroke-width="1.5" opacity="0.75"/><line x1="657" x2="665" y1="303.6947781133333" y2="303.6947781133333" stroke="#2a78d6" stroke-width="1.5" opacity="0.75"/><line x1="737.7731473503457" x2="737.7731473503457" y1="303.72468556666666" y2="303.7135307866667" stroke="#2a78d6" stroke-width="1.5" opacity="0.75"/><line x1="733.7731473503457" x2="741.7731473503457" y1="303.7135307866667" y2="303.7135307866667" stroke="#2a78d6" stroke-width="1.5" opacity="0.75"/><line x1="821.9090909090909" x2="821.9090909090909" y1="303.73634873333333" y2="303.7228488833333" stroke="#2a78d6" stroke-width="1.5" opacity="0.75"/><line x1="817.9090909090909" x2="825.9090909090909" y1="303.7228488833333" y2="303.7228488833333" stroke="#2a78d6" stroke-width="1.5" opacity="0.75"/><path d="M500.1 303.7L661.0 303.7L737.8 303.7L821.9 303.7" fill="none" stroke="#2a78d6" stroke-width="2" stroke-dasharray="" stroke-linejoin="round"/><g fill="#2a78d6" stroke="#fcfcfb" stroke-width="2"><circle cx="500.09090909090907" cy="303.70994963333334" r="4.5"/><circle cx="661" cy="303.7090972666667" r="4.5"/><circle cx="737.7731473503457" cy="303.72468556666666" r="4.5"/><circle cx="821.9090909090909" cy="303.73634873333333" r="4.5"/></g><line x1="500.09090909090907" x2="500.09090909090907" y1="303.72229833333336" y2="303.7106776333333" stroke="#1baf7a" stroke-width="1.5" opacity="0.75"/><line x1="496.09090909090907" x2="504.09090909090907" y1="303.7106776333333" y2="303.7106776333333" stroke="#1baf7a" stroke-width="1.5" opacity="0.75"/><line x1="661" x2="661" y1="303.7217038" y2="303.70942577666665" stroke="#1baf7a" stroke-width="1.5" opacity="0.75"/><line x1="657" x2="665" y1="303.70942577666665" y2="303.70942577666665" stroke="#1baf7a" stroke-width="1.5" opacity="0.75"/><line x1="737.7731473503457" x2="737.7731473503457" y1="303.7387147333333" y2="303.71464038" stroke="#1baf7a" stroke-width="1.5" opacity="0.75"/><line x1="733.7731473503457" x2="741.7731473503457" y1="303.71464038" y2="303.71464038" stroke="#1baf7a" stroke-width="1.5" opacity="0.75"/><line x1="821.9090909090909" x2="821.9090909090909" y1="303.7314863" y2="303.71550700333336" stroke="#1baf7a" stroke-width="1.5" opacity="0.75"/><line x1="817.9090909090909" x2="825.9090909090909" y1="303.71550700333336" y2="303.71550700333336" stroke="#1baf7a" stroke-width="1.5" opacity="0.75"/><path d="M500.1 303.7L661.0 303.7L737.8 303.7L821.9 303.7" fill="none" stroke="#1baf7a" stroke-width="2" stroke-dasharray="2 3" stroke-linejoin="round"/><g fill="#1baf7a" stroke="#fcfcfb" stroke-width="2"><path d="M500.09090909090907 297.87229833333333L505.9409090909091 303.72229833333336L500.09090909090907 309.5722983333334L494.24090909090904 303.72229833333336Z"/><path d="M661 297.8717038L666.85 303.7217038L661 309.5717038L655.15 303.7217038Z"/><path d="M737.7731473503457 297.8887147333333L743.6231473503457 303.7387147333333L737.7731473503457 309.58871473333335L731.9231473503456 303.7387147333333Z"/><path d="M821.9090909090909 297.88148629999995L827.7590909090909 303.7314863L821.9090909090909 309.5814863L816.0590909090909 303.7314863Z"/></g><line x1="500.09090909090907" x2="500.09090909090907" y1="302.6112550666667" y2="302.5804024266667" stroke="#e87ba4" stroke-width="1.5" opacity="0.75"/><line x1="496.09090909090907" x2="504.09090909090907" y1="302.5804024266667" y2="302.5804024266667" stroke="#e87ba4" stroke-width="1.5" opacity="0.75"/><line x1="661" x2="661" y1="291.01702393333335" y2="290.89876154666666" stroke="#e87ba4" stroke-width="1.5" opacity="0.75"/><line x1="657" x2="665" y1="290.89876154666666" y2="290.89876154666666" stroke="#e87ba4" stroke-width="1.5" opacity="0.75"/><line x1="737.7731473503457" x2="737.7731473503457" y1="265.5111132" y2="264.96268532" stroke="#e87ba4" stroke-width="1.5" opacity="0.75"/><line x1="733.7731473503457" x2="741.7731473503457" y1="264.96268532" y2="264.96268532" stroke="#e87ba4" stroke-width="1.5" opacity="0.75"/><line x1="821.9090909090909" x2="821.9090909090909" y1="178.56715913333335" y2="176.69178502666665" stroke="#e87ba4" stroke-width="1.5" opacity="0.75"/><line x1="817.9090909090909" x2="825.9090909090909" y1="176.69178502666665" y2="176.69178502666665" stroke="#e87ba4" stroke-width="1.5" opacity="0.75"/><path d="M500.1 302.6L661.0 291.0L737.8 265.5L821.9 178.6" fill="none" stroke="#e87ba4" stroke-width="2" stroke-dasharray="8 3 2 3" stroke-linejoin="round"/><g fill="#e87ba4" stroke="#fcfcfb" stroke-width="2"><path d="M500.09090909090907 296.76125506666665L505.49090909090904 307.1112550666667L494.6909090909091 307.1112550666667Z"/><path d="M661 285.1670239333333L666.4 295.51702393333335L655.6 295.51702393333335Z"/><path d="M737.7731473503457 259.6611132L743.1731473503456 270.0111132L732.3731473503457 270.0111132Z"/><path d="M821.9090909090909 172.71715913333335L827.3090909090909 183.06715913333335L816.5090909090909 183.06715913333335Z"/></g><text x="661" y="336" font-size="11" fill="#5f5e5a" text-anchor="middle">N (skala log.)</text><text x="64" y="358" font-size="14" font-weight="600" fill="#1f1f1e">Rozmiar odpowiedzi</text><text x="418" y="358" font-size="11" fill="#5f5e5a" text-anchor="end">MB</text><line x1="64" x2="418" y1="554" y2="554" stroke="#e4e3de"/><text x="58" y="558" font-size="11" fill="#5f5e5a" text-anchor="end">0</text><line x1="64" x2="418" y1="508.5" y2="508.5" stroke="#e4e3de"/><text x="58" y="512.5" font-size="11" fill="#5f5e5a" text-anchor="end">2</text><line x1="64" x2="418" y1="463" y2="463" stroke="#e4e3de"/><text x="58" y="467" font-size="11" fill="#5f5e5a" text-anchor="end">4</text><line x1="64" x2="418" y1="417.5" y2="417.5" stroke="#e4e3de"/><text x="58" y="421.5" font-size="11" fill="#5f5e5a" text-anchor="end">6</text><line x1="64" x2="418" y1="372" y2="372" stroke="#e4e3de"/><text x="58" y="376" font-size="11" fill="#5f5e5a" text-anchor="end">8</text><line x1="64" x2="418" y1="554" y2="554" stroke="#a8a79f"/><text x="80.0909090909091" y="570" font-size="11" fill="#5f5e5a" text-anchor="middle">100</text><text x="241" y="570" font-size="11" fill="#5f5e5a" text-anchor="middle">1000</text><text x="317.7731473503457" y="570" font-size="11" fill="#5f5e5a" text-anchor="middle">3000</text><text x="401.9090909090909" y="570" font-size="11" fill="#5f5e5a" text-anchor="middle">10 tys.</text><path d="M80.1 553.7L241.0 553.7L317.8 553.7L401.9 553.7" fill="none" stroke="#2a78d6" stroke-width="2" stroke-dasharray="" stroke-linejoin="round"/><g fill="#2a78d6" stroke="#fcfcfb" stroke-width="2"><circle cx="80.0909090909091" cy="553.65704375" r="4.5"/><circle cx="241" cy="553.65918225" r="4.5"/><circle cx="317.7731473503457" cy="553.65745325" r="4.5"/><circle cx="401.9090909090909" cy="553.6582495" r="4.5"/></g><path d="M80.1 553.7L241.0 553.7L317.8 553.7L401.9 553.7" fill="none" stroke="#1baf7a" stroke-width="2" stroke-dasharray="2 3" stroke-linejoin="round"/><g fill="#1baf7a" stroke="#fcfcfb" stroke-width="2"><path d="M80.0909090909091 547.81148L85.94090909090909 553.66148L80.0909090909091 559.51148L74.2409090909091 553.66148Z"/><path d="M241 547.81050175L246.85 553.66050175L241 559.51050175L235.15 553.66050175Z"/><path d="M317.7731473503457 547.81245825L323.62314735034573 553.66245825L317.7731473503457 559.51245825L311.9231473503457 553.66245825Z"/><path d="M401.9090909090909 547.8083859999999L407.7590909090909 553.658386L401.9090909090909 559.508386L396.05909090909086 553.658386Z"/></g><path d="M80.1 552.4L241.0 538.4L317.8 507.0L401.9 397.1" fill="none" stroke="#e87ba4" stroke-width="2" stroke-dasharray="8 3 2 3" stroke-linejoin="round"/><g fill="#e87ba4" stroke="#fcfcfb" stroke-width="2"><path d="M80.0909090909091 546.5540874999999L85.4909090909091 556.9040875L74.69090909090909 556.9040875Z"/><path d="M241 532.5502339999999L246.4 542.900234L235.6 542.900234Z"/><path d="M317.7731473503457 501.165062L323.1731473503457 511.515062L312.37314735034573 511.515062Z"/><path d="M401.9090909090909 391.299124L407.30909090909086 401.64912400000003L396.5090909090909 401.64912400000003Z"/></g><text x="241" y="586" font-size="11" fill="#5f5e5a" text-anchor="middle">N (skala log.)</text><text x="484" y="358" font-size="14" font-weight="600" fill="#1f1f1e">Rozmiar po gzip (wyliczony)</text><text x="838" y="358" font-size="11" fill="#5f5e5a" text-anchor="end">MB</text><line x1="484" x2="838" y1="554" y2="554" stroke="#e4e3de"/><text x="478" y="558" font-size="11" fill="#5f5e5a" text-anchor="end">0</text><line x1="484" x2="838" y1="493.3333333333333" y2="493.3333333333333" stroke="#e4e3de"/><text x="478" y="497.3333333333333" font-size="11" fill="#5f5e5a" text-anchor="end">0,5</text><line x1="484" x2="838" y1="432.6666666666667" y2="432.6666666666667" stroke="#e4e3de"/><text x="478" y="436.6666666666667" font-size="11" fill="#5f5e5a" text-anchor="end">1</text><line x1="484" x2="838" y1="372" y2="372" stroke="#e4e3de"/><text x="478" y="376" font-size="11" fill="#5f5e5a" text-anchor="end">1,5</text><line x1="484" x2="838" y1="554" y2="554" stroke="#a8a79f"/><text x="500.09090909090907" y="570" font-size="11" fill="#5f5e5a" text-anchor="middle">100</text><text x="661" y="570" font-size="11" fill="#5f5e5a" text-anchor="middle">1000</text><text x="737.7731473503457" y="570" font-size="11" fill="#5f5e5a" text-anchor="middle">3000</text><text x="821.9090909090909" y="570" font-size="11" fill="#5f5e5a" text-anchor="middle">10 tys.</text><path d="M500.1 553.7L661.0 553.7L737.8 553.7L821.9 553.7" fill="none" stroke="#2a78d6" stroke-width="2" stroke-dasharray="" stroke-linejoin="round"/><g fill="#2a78d6" stroke="#fcfcfb" stroke-width="2"><circle cx="500.09090909090907" cy="553.684776" r="4.5"/><circle cx="661" cy="553.6805293333333" r="4.5"/><circle cx="737.7731473503457" cy="553.693876" r="4.5"/><circle cx="821.9090909090909" cy="553.7009133333333" r="4.5"/></g><path d="M500.1 553.7L661.0 553.7L737.8 553.7L821.9 553.7" fill="none" stroke="#1baf7a" stroke-width="2" stroke-dasharray="2 3" stroke-linejoin="round"/><g fill="#1baf7a" stroke="#fcfcfb" stroke-width="2"><path d="M500.09090909090907 547.852976L505.9409090909091 553.702976L500.09090909090907 559.5529760000001L494.24090909090904 553.702976Z"/><path d="M661 547.8509133333333L666.85 553.7009133333333L661 559.5509133333334L655.15 553.7009133333333Z"/><path d="M737.7731473503457 547.858072L743.6231473503457 553.708072L737.7731473503457 559.558072L731.9231473503456 553.708072Z"/><path d="M821.9090909090909 547.8452106666666L827.7590909090909 553.6952106666666L821.9090909090909 559.5452106666667L816.0590909090909 553.6952106666666Z"/></g><path d="M500.1 552.5L661.0 540.0L737.8 511.8L821.9 414.3" fill="none" stroke="#e87ba4" stroke-width="2" stroke-dasharray="8 3 2 3" stroke-linejoin="round"/><g fill="#e87ba4" stroke="#fcfcfb" stroke-width="2"><path d="M500.09090909090907 546.6873266666666L505.49090909090904 557.0373266666667L494.6909090909091 557.0373266666667Z"/><path d="M661 534.1764039999999L666.4 544.526404L655.6 544.526404Z"/><path d="M737.7731473503457 505.92260266666665L743.1731473503456 516.2726026666667L732.3731473503457 516.2726026666667Z"/><path d="M821.9090909090909 408.46123866666665L827.3090909090909 418.81123866666667L816.5090909090909 418.81123866666667Z"/></g><text x="661" y="586" font-size="11" fill="#5f5e5a" text-anchor="middle">N (skala log.)</text></svg>